<svg width="20" height="21" viewBox="0 0 20 21" fill="none" xmlns="http://www.w3.org/2000/svg">
<path d="M2.6563 10.5C2.6563 10.3757 2.70568 10.2564 2.79359 10.1685C2.8815 10.0806 3.00073 10.0312 3.12505 10.0312L15.743 10.0312L10.9188 5.20622C10.8727 5.16331 10.8358 5.11156 10.8102 5.05406C10.7846 4.99656 10.7708 4.93449 10.7697 4.87155C10.7686 4.80861 10.7801 4.74609 10.8037 4.68773C10.8273 4.62936 10.8624 4.57634 10.9069 4.53182C10.9514 4.48731 11.0044 4.45222 11.0628 4.42865C11.1212 4.40507 11.1837 4.39349 11.2466 4.3946C11.3096 4.39571 11.3716 4.40949 11.4291 4.43511C11.4866 4.46073 11.5384 4.49767 11.5813 4.54372L17.2063 10.1687C17.2941 10.2566 17.3434 10.3758 17.3434 10.5C17.3434 10.6242 17.2941 10.7433 17.2063 10.8312L11.5813 16.4562C11.4924 16.539 11.3749 16.5841 11.2535 16.582C11.132 16.5798 11.0162 16.5306 10.9303 16.4447C10.8444 16.3589 10.7952 16.243 10.7931 16.1216C10.7909 16.0001 10.836 15.8826 10.9188 15.7937L15.743 10.9687L3.12505 10.9687C3.00073 10.9687 2.8815 10.9193 2.79359 10.8314C2.70568 10.7435 2.6563 10.6243 2.6563 10.5Z" fill="#743B2C"/>
</svg>
